<svg xmlns="http://www.w3.org/2000/svg" xmlns:xlink="http://www.w3.org/1999/xlink" viewBox="0 0 468.57 498.37"><defs><style>.cls-1,.cls-15{fill:none;}.cls-2{clip-path:url(#clip-path);}.cls-3{fill:#342a28;}.cls-4{fill:#e9946f;}.cls-5{fill:#e67f69;}.cls-6{fill:#f5b680;}.cls-7{fill:#70cacd;}.cls-8{fill:#ad3b66;}.cls-9{fill:#f05a28;}.cls-10{fill:#3f4d54;}.cls-11{fill:#93d5d8;}.cls-12{fill:#c43728;}.cls-13{fill:#82b6a0;}.cls-14{fill:#c16b59;}.cls-15{stroke:#ac604e;stroke-miterlimit:10;stroke-width:2px;}.cls-16{fill:#e67e69;}.cls-17{fill:#8e7546;}.cls-18{fill:#dad6c4;}.cls-19{fill:#fff8ee;}.cls-20{fill:#f58925;}.cls-21{fill:#4e857a;}.cls-22{fill:#f58a28;}.cls-23{fill:#9a2325;}.cls-24{fill:#008ea7;}.cls-25{fill:#ad1e4f;}.cls-26{fill:#81467d;}.cls-27{fill:#683761;}.cls-28{fill:#f05757;}.cls-29{fill:#fcb82e;}</style><clipPath id="clip-path" transform="translate(-15.71 -4.96)"><rect class="cls-1" width="500" height="500"/></clipPath></defs><title>Ресурс 1</title><g id="Слой_2" data-name="Слой 2"><g id="OBJECT"><g class="cls-2"><ellipse class="cls-3" cx="230.34" cy="26.77" rx="30.54" ry="26.77"/><circle class="cls-4" cx="40.25" cy="77.41" r="4.54" transform="translate(-28.37 3.07) rotate(-9.85)"/><circle class="cls-4" cx="24.66" cy="200.31" r="4.54" transform="translate(-19.3 -4.49) rotate(-1.03)"/><rect class="cls-3" x="24.44" y="177.92" width="7.45" height="20.54" rx="3.54" ry="3.54" transform="translate(43.99 370.87) rotate(178.97)"/><ellipse class="cls-3" cx="41.31" cy="202.17" rx="2.28" ry="3.23" transform="translate(-19.33 -4.19) rotate(-1.03)"/><ellipse class="cls-5" cx="36.13" cy="208.05" rx="3.87" ry="1.69" transform="translate(-19.44 -4.28) rotate(-1.03)"/><path class="cls-6" d="M112.54,30.5c-.43.54,2,5.58,3,7.67-5.31-4.33-11.36-8.87-12-7.76-.93,1.49,5.39,6.11,8.78,8.43-3.75-2.45-11.41-7.1-12.08-4.86-.74,2.45,8.83,6.84,12.26,8.33-3.54-1.49-13.71-5.61-13.74-4,0,1.91,14.69,8.24,14.69,8.24s-11.65-2.33-12.43.6,26.73,3.61,22.82-2C121.57,42.17,114.12,28.54,112.54,30.5Z" transform="translate(-15.71 -4.96)"/><path class="cls-7" d="M98.26,109.29s39.74,5.16,39.08-22.07-20.67-36.67-20.67-36.67l6-9.87s67.13,38.39,24.57,86.39C147.24,127.08,107.17,137.6,98.26,109.29Z" transform="translate(-15.71 -4.96)"/><path class="cls-7" d="M88.17,213.81S32.59,143.32,74,116.55c33.48-21.67,74.71,12.12,74.71,12.12S122.55,207.78,88.17,213.81Z" transform="translate(-15.71 -4.96)"/><path class="cls-7" d="M88.17,213.81s-23.32-35.38-10.5-49.4c18.43-20.15,42.18-12.55,42.18-12.55S117.89,161.88,88.17,213.81Z" transform="translate(-15.71 -4.96)"/><path class="cls-8" d="M405.78,149.07s1.94-38.5-26.17-43.25-33.36,2.25-33.36,2.25S364.55,159.32,405.78,149.07Z" transform="translate(-15.71 -4.96)"/><rect class="cls-3" x="6.95" y="156.19" width="56.94" height="128" rx="27.33" ry="27.33"/><circle class="cls-9" cx="70.17" cy="50.79" r="15.96"/><circle class="cls-9" cx="24.62" cy="63.45" r="15.96"/><circle class="cls-9" cx="63.61" cy="30.25" r="11.75"/><circle class="cls-9" cx="21.83" cy="42.01" r="11.75"/><path class="cls-10" d="M461.65,394.76S453.1,446,420.22,499.66H404.13s24.56-97.37,6.29-104.9S368,499.66,368,499.66H350s3.91-71.86,33-121.43C383,378.24,445.3,371.51,461.65,394.76Z" transform="translate(-15.71 -4.96)"/><path class="cls-11" d="M32.59,387.71s16.69,62.29,49.7,112H98.38s-24.56-97.37-6.29-104.9,42.43,104.9,42.43,104.9h18s-3.91-71.86-33-121.43C119.55,378.24,48.94,364.46,32.59,387.71Z" transform="translate(-15.71 -4.96)"/><path class="cls-12" d="M32.59,387.71S-6,302,33.53,251c22.08-28.49,96.23,4.75,96.23,131.77Z" transform="translate(-15.71 -4.96)"/><path class="cls-13" d="M383,378.24s10.32-112.05,40.9-131.14,78.15,20.82,37.8,147.67Z" transform="translate(-15.71 -4.96)"/><rect class="cls-14" x="222.68" y="57.63" width="13.6" height="38.95"/><rect class="cls-3" x="204.59" y="11.4" width="50.58" height="35.3" rx="16.77" ry="16.77"/><rect class="cls-6" x="208.77" y="19.05" width="42.23" height="66.86" rx="20.07" ry="20.07"/><circle class="cls-4" cx="204.59" cy="44.53" r="4.54"/><circle class="cls-4" cx="255.17" cy="44.53" r="4.54"/><ellipse class="cls-3" cx="229.83" cy="23.43" rx="21.29" ry="10.04"/><rect class="cls-3" x="204.59" y="22.2" width="7.45" height="20.54" rx="3.54" ry="3.54"/><rect class="cls-3" x="247.72" y="22.2" width="7.45" height="20.54" rx="3.54" ry="3.54"/><polyline class="cls-15" points="228.42 46.17 225.46 59.61 232.19 58.78"/><path class="cls-15" d="M241.17,67.22s7.82,6,10.4-2" transform="translate(-15.71 -4.96)"/><ellipse class="cls-3" cx="220.39" cy="46.7" rx="2.28" ry="3.23"/><ellipse class="cls-3" cx="238.56" cy="46.7" rx="2.28" ry="3.23"/><ellipse class="cls-16" cx="218.8" cy="52.48" rx="3.87" ry="1.69"/><ellipse class="cls-16" cx="243.85" cy="52.48" rx="3.87" ry="1.69"/><rect class="cls-5" x="64.68" y="85.29" width="13.6" height="38.95" transform="translate(144.13 190.8) rotate(170.15)"/><rect class="cls-6" x="45.75" y="47.14" width="42.23" height="66.86" rx="20.07" ry="20.07" transform="matrix(-0.99, 0.17, -0.17, -0.99, 130.82, 143.55)"/><circle class="cls-4" cx="90.42" cy="68.41" r="4.54" transform="translate(-26.09 11.52) rotate(-9.85)"/><circle class="cls-4" cx="40.59" cy="77.07" r="4.54" transform="translate(-28.3 3.12) rotate(-9.85)"/><ellipse class="cls-9" cx="61.71" cy="50.56" rx="18.32" ry="8.64" transform="translate(-23.46 6.35) rotate(-9.85)"/><rect class="cls-9" x="80.97" y="46.9" width="7.45" height="20.54" rx="3.54" ry="3.54" transform="translate(162.2 94.04) rotate(170.15)"/><rect class="cls-9" x="38.47" y="54.28" width="7.45" height="20.54" rx="3.54" ry="3.54" transform="translate(79.1 115.97) rotate(170.15)"/><polyline class="cls-15" points="51.51 69.14 58.24 81.49 49.96 82.22"/><path class="cls-15" d="M72.9,89.45s-3.52,12.28-9.56,1.66" transform="translate(-15.71 -4.96)"/><ellipse class="cls-3" cx="75.23" cy="73.25" rx="2.28" ry="3.23" transform="translate(-27.14 8.99) rotate(-9.85)"/><ellipse class="cls-3" cx="57.33" cy="76.36" rx="2.28" ry="3.23" transform="translate(-27.94 5.98) rotate(-9.85)"/><ellipse class="cls-16" cx="77.78" cy="78.67" rx="3.87" ry="1.69" transform="translate(-28.03 9.51) rotate(-9.85)"/><ellipse class="cls-16" cx="53.11" cy="82.96" rx="3.87" ry="1.69" transform="translate(-29.13 5.35) rotate(-9.85)"/><rect class="cls-5" x="44.48" y="212.6" width="13.6" height="38.95" transform="translate(90.99 458.25) rotate(178.97)"/><rect class="cls-3" x="24.72" y="166.39" width="50.58" height="35.3" rx="16.77" ry="16.77" transform="translate(87.59 362.19) rotate(178.97)"/><rect class="cls-6" x="29.31" y="174.03" width="42.23" height="66.86" rx="20.07" ry="20.07" transform="translate(88.85 409.02) rotate(178.97)"/><circle class="cls-4" cx="75.57" cy="199.06" r="4.54" transform="translate(-19.27 -3.58) rotate(-1.03)"/><circle class="cls-4" cx="25" cy="199.97" r="4.54" transform="translate(-19.29 -4.48) rotate(-1.03)"/><path class="cls-3" d="M28.86,183.78c.05,8.46,10,15,22.18,14.55s22-7.62,22-16.08-10-15-22.18-14.55S28.8,175.32,28.86,183.78Z" transform="translate(-15.71 -4.96)"/><polyline class="cls-15" points="36.06 196.17 40.55 207.78 32.52 208.85"/><path class="cls-15" d="M55,217.16s-7.77,9.9-11.9-1.53" transform="translate(-15.71 -4.96)"/><ellipse class="cls-3" cx="59.81" cy="201.51" rx="2.28" ry="3.23" transform="translate(-19.31 -3.86) rotate(-1.03)"/><ellipse class="cls-3" cx="41.65" cy="201.84" rx="2.28" ry="3.23" transform="translate(-19.32 -4.18) rotate(-1.03)"/><ellipse class="cls-16" cx="61.51" cy="207.26" rx="3.87" ry="1.69" transform="translate(-19.42 -3.83) rotate(-1.03)"/><ellipse class="cls-16" cx="36.46" cy="207.71" rx="3.87" ry="1.69" transform="translate(-19.43 -4.27) rotate(-1.03)"/><rect class="cls-5" x="377.24" y="76.09" width="13.6" height="38.95" transform="matrix(0.99, 0.15, -0.15, 0.99, 2.9, -61.33)"/><rect class="cls-17" x="366.34" y="30.46" width="50.58" height="35.3" rx="16.77" ry="16.77" transform="translate(-4.11 -63) rotate(8.6)"/><rect class="cls-6" x="367.01" y="37.85" width="42.23" height="66.86" rx="20.07" ry="20.07" transform="translate(-0.69 -62.22) rotate(8.6)"/><circle class="cls-4" cx="364.31" cy="59.64" r="4.54" transform="translate(235.13 405.97) rotate(-81.4)"/><circle class="cls-4" cx="414.32" cy="67.2" r="4.54" transform="translate(270.19 461.85) rotate(-81.4)"/><ellipse class="cls-17" cx="392.63" cy="41.16" rx="8.64" ry="18.32" transform="translate(277.48 418.25) rotate(-81.4)"/><rect class="cls-17" x="366.07" y="38" width="7.45" height="20.54" rx="3.54" ry="3.54" transform="translate(-4.33 -59.73) rotate(8.6)"/><rect class="cls-17" x="408.72" y="44.46" width="7.45" height="20.54" rx="3.54" ry="3.54" transform="translate(-2.89 -66.04) rotate(8.6)"/><polyline class="cls-15" points="371.91 59.86 364.56 72 373.75 72.9"/><path class="cls-15" d="M382.29,82.79s8,12.78,9.59-1.05" transform="translate(-15.71 -4.96)"/><ellipse class="cls-3" cx="379.61" cy="64.14" rx="3.23" ry="2.28" transform="translate(243.69 424.92) rotate(-81.4)"/><ellipse class="cls-3" cx="397.57" cy="66.86" rx="3.23" ry="2.28" transform="translate(256.28 445) rotate(-81.4)"/><ellipse class="cls-16" cx="377.17" cy="69.62" rx="1.69" ry="3.87" transform="translate(236.2 427.17) rotate(-81.4)"/><ellipse class="cls-16" cx="401.94" cy="73.37" rx="1.69" ry="3.87" transform="translate(253.56 454.85) rotate(-81.4)"/><path class="cls-18" d="M366.88,404.14a176.61,176.61,0,0,0,68.5-139.7c0-97.87-79.71-177.21-178-177.21s-178,79.34-178,177.21,79.71,177.21,178,177.21a178.31,178.31,0,0,0,63.89-11.77c32,19.66,78.05,18.71,78.05,18.71C386,438.17,374.94,420.33,366.88,404.14Z" transform="translate(-15.71 -4.96)"/><path class="cls-19" d="M365.06,399.28a170.31,170.31,0,0,0,66.05-134.72c0-94.38-76.86-170.89-171.68-170.89S87.75,170.18,87.75,264.56s76.86,170.89,171.68,170.89A172,172,0,0,0,321,424.1c30.83,19,75.27,18,75.27,18C383.5,432.1,372.83,414.9,365.06,399.28Z" transform="translate(-15.71 -4.96)"/><path class="cls-20" d="M308.24,101.55s2.5,12.67-32.81,16.12-78.21-23.81-78.21-23.81l2.81-3S275.94,70.51,308.24,101.55Z" transform="translate(-15.71 -4.96)"/><path class="cls-20" d="M308.24,101.55s-9.38-31-42.63-25.11L252,87.23S288.41,111.3,308.24,101.55Z" transform="translate(-15.71 -4.96)"/><path class="cls-6" d="M225.51,76.23l-.66-15L213.64,54.9s3.92-13.55-1.54-13.55L208.36,54l6.73,8.56,1.52,13.11Z" transform="translate(-15.71 -4.96)"/><path class="cls-20" d="M164.44,114.47s41.33,19.14,61.07-38.24l-8.9-4.12Z" transform="translate(-15.71 -4.96)"/><path class="cls-8" d="M366.73,127.59S358,95.46,339,95.57s-19,2.94-19,2.94S325.46,143.18,366.73,127.59Z" transform="translate(-15.71 -4.96)"/><path class="cls-8" d="M412.44,175.61s6.86-37.6-10.51-45.31c-25-11.09-34.19-5.23-34.19-5.23S364.43,139.91,412.44,175.61Z" transform="translate(-15.71 -4.96)"/><rect class="cls-5" x="441.84" y="213.07" width="13.6" height="38.95" transform="translate(-24.72 13.29) rotate(-2.31)"/><rect class="cls-3" x="421.82" y="166.86" width="50.58" height="35.3" rx="16.77" ry="16.77" transform="translate(-22.78 13.19) rotate(-2.31)"/><rect class="cls-6" x="426.94" y="174.49" width="42.23" height="66.86" rx="20.07" ry="20.07" transform="translate(-23.72 13.25) rotate(-2.31)"/><circle class="cls-4" cx="422.46" cy="201" r="4.54" transform="translate(-23.47 12.21) rotate(-2.31)"/><circle class="cls-4" cx="473" cy="198.96" r="4.54" transform="translate(-23.34 14.25) rotate(-2.31)"/><ellipse class="cls-3" cx="446.77" cy="177.5" rx="18.32" ry="8.64" transform="translate(-22.5 13.17) rotate(-2.31)"/><rect class="cls-3" x="421.97" y="178.53" width="7.45" height="20.54" rx="3.54" ry="3.54" transform="translate(-22.97 12.33) rotate(-2.31)"/><rect class="cls-3" x="465.07" y="176.79" width="7.45" height="20.54" rx="3.54" ry="3.54" transform="translate(-22.87 14.07) rotate(-2.31)"/><polyline class="cls-15" points="430.63 196.71 425.38 209.32 434.9 209.17"/><path class="cls-15" d="M444,217.87s10.89,8.92,10.68-3.59" transform="translate(-15.71 -4.96)"/><ellipse class="cls-3" cx="438.34" cy="202.52" rx="2.28" ry="3.23" transform="translate(-23.51 12.85) rotate(-2.31)"/><ellipse class="cls-3" cx="456.49" cy="201.79" rx="2.28" ry="3.23" transform="translate(-23.47 13.59) rotate(-2.31)"/><ellipse class="cls-16" cx="436.98" cy="208.36" rx="3.87" ry="1.69" transform="translate(-23.75 12.81) rotate(-2.31)"/><ellipse class="cls-16" cx="462.01" cy="207.35" rx="3.87" ry="1.69" transform="translate(-23.69 13.81) rotate(-2.31)"/><path class="cls-12" d="M29.07,262S30.94,310.34,95,329.36l7.58,9.07s-55.06,18.45-84.8-29.49C17.75,308.94,13.46,279.78,29.07,262Z" transform="translate(-15.71 -4.96)"/><circle class="cls-17" cx="383.47" cy="17.19" r="13.48"/><circle class="cls-9" cx="40.72" cy="30.67" r="15.96"/><circle class="cls-3" cx="433.16" cy="227.87" r="8.55"/><path class="cls-3" d="M429.69,195.37s-3.4,35.22,11.37,40.92l7.29,5.07s-21.35-.64-20.86-19.24l-1.8-25.67Z" transform="translate(-15.71 -4.96)"/><path class="cls-3" d="M467.36,193.38S473.85,238,450.75,237l-2.39,4.37s22.36-.64,21.87-19.24l1.8-25.67Z" transform="translate(-15.71 -4.96)"/><ellipse class="cls-5" cx="364.88" cy="111.59" rx="8.87" ry="7.39"/><ellipse class="cls-5" cx="433.16" cy="250.57" rx="8.87" ry="7.39"/><ellipse class="cls-5" cx="36.29" cy="250.57" rx="8.87" ry="7.39"/><ellipse class="cls-5" cx="59.6" cy="120.4" rx="8.87" ry="7.39"/><path class="cls-5" d="M365.7,122.25s9.36,23.57,7,24.07-5.58-13.5-5.58-13.5,4.21,15.57,1.11,15.41-3.79-15.66-3.79-15.66,1.05,16.21-.76,15.61-2.81-16.61-2.81-16.61-1.73,11.75-4.75,11.5S361.76,116.69,365.7,122.25Z" transform="translate(-15.71 -4.96)"/><path class="cls-6" d="M373,128.26s-18.72-17.1-20-15.1,10.65,10,10.65,10-13.07-9.45-14-6.49,13.3,9.09,13.3,9.09S348.12,119,348,120.95s14.53,8.51,14.53,8.51-11.6-2.54-12.44.37S376.8,133.92,373,128.26Z" transform="translate(-15.71 -4.96)"/><path class="cls-6" d="M113.39,155.85s10.31-23.17,12.3-21.85-5.75,13.43-5.75,13.43,8.19-13.89,10.25-11.56-8.55,13.65-8.55,13.65,10.86-12.08,11.69-10.36-9.91,13.62-9.91,13.62,9.62-7,11.54-4.64S112.16,162.56,113.39,155.85Z" transform="translate(-15.71 -4.96)"/><path class="cls-6" d="M422.73,242.72c-.64-.26-4.74,3.57-6.43,5.18,2.56-6.36,5.11-13.48,3.84-13.81-1.7-.44-4.24,7-5.46,10.88,1.22-4.31,3.4-13,1.07-13-2.56,0-3.92,10.46-4.33,14.18.37-3.82,1.3-14.76-.21-14.32-1.84.53-3.52,16.47-3.52,16.47s-1.23-11.81-4.25-11.69,4.47,26.6,8.65,21.21C414.26,254.81,425.07,243.66,422.73,242.72Z" transform="translate(-15.71 -4.96)"/><path class="cls-6" d="M109.55,324.22c.19.66-4,4.34-5.83,5.85,6.59-1.88,13.94-3.67,14.13-2.38.26,1.74-7.36,3.49-11.39,4.29,4.41-.77,13.28-2,13,.3-.29,2.54-10.81,2.81-14.55,2.82,3.84,0,14.81.25,14.22,1.71-.72,1.77-16.75,1.78-16.75,1.78S114,341,113.59,344s-26-7.23-20.19-10.82C96.65,331.38,108.87,321.8,109.55,324.22Z" transform="translate(-15.71 -4.96)"/><path class="cls-13" d="M414,255.53S414.34,292,448.64,291s9.76-40.47,9.76-40.47,10.54,1.4,18.77,17.36c8.6,16.68,12.35,49.37-6.12,61.45-36.13,23.64-76-25.79-64.5-73.83C406.56,255.53,407.29,246.27,414,255.53Z" transform="translate(-15.71 -4.96)"/><path class="cls-21" d="M433.74,288.56S457,296.82,463,280.82C463,280.82,450,290.81,433.74,288.56Z" transform="translate(-15.71 -4.96)"/><path class="cls-21" d="M422.46,321s24.34,20.3,51.19,1.8C473.65,322.82,453.43,349.22,422.46,321Z" transform="translate(-15.71 -4.96)"/><path class="cls-22" d="M105.47,452.49s7.89,33.68,6.78,47.18l4.11.1S110.92,463.82,105.47,452.49Z" transform="translate(-15.71 -4.96)"/><path class="cls-23" d="M37.43,271.32s-7.49,39,57.54,58C95,329.36,42,311.82,37.43,271.32Z" transform="translate(-15.71 -4.96)"/><path class="cls-23" d="M16.28,297.82s12.22,58,79.72,42C96,339.82,23.23,365.82,16.28,297.82Z" transform="translate(-15.71 -4.96)"/><path class="cls-24" d="M113.39,155.85s-18.81-.75-31.88,10.39c0,0-7.46-3.26-10.49-20.34,0,0,6.62,13.36,10.58,14.68C81.61,160.58,100.45,149.07,113.39,155.85Z" transform="translate(-15.71 -4.96)"/><path class="cls-25" d="M373,128.26s30.58-2.39,37.8,12.08C410.79,140.35,404,118.71,373,128.26Z" transform="translate(-15.71 -4.96)"/><path class="cls-9" d="M301.5,97.82s-21.83-11-48.34-12.73C253.15,85.09,277.77,79.08,301.5,97.82Z" transform="translate(-15.71 -4.96)"/><path class="cls-26" d="M377.35,499.66S390.4,433,416.2,417s57.45,1.39,57.45,82.65Z" transform="translate(-15.71 -4.96)"/><rect class="cls-5" x="428.65" y="381.08" width="13.6" height="38.95" transform="translate(39.51 -57.72) rotate(7.4)"/><rect class="cls-9" x="416.75" y="335.3" width="50.58" height="35.3" rx="16.77" ry="16.77" transform="translate(33.43 -58.96) rotate(7.4)"/><rect class="cls-6" x="417.91" y="342.75" width="42.23" height="66.86" rx="20.07" ry="20.07" transform="translate(36.4 -58.38) rotate(7.4)"/><circle class="cls-4" cx="414.97" cy="365.04" r="4.54" transform="translate(-16.2 724.57) rotate(-82.6)"/><circle class="cls-4" cx="465.13" cy="371.56" r="4.54" transform="translate(21.04 779.99) rotate(-82.6)"/><polyline class="cls-15" points="422.68 364.77 415.5 375.4 424.79 377.77"/><path class="cls-15" d="M433.63,386.56s6.44,16,9.37,0" transform="translate(-15.71 -4.96)"/><ellipse class="cls-3" cx="430.36" cy="369.22" rx="3.23" ry="2.28" transform="translate(-6.94 743.47) rotate(-82.6)"/><ellipse class="cls-3" cx="448.38" cy="371.57" rx="3.23" ry="2.28" transform="translate(6.43 763.38) rotate(-82.6)"/><ellipse class="cls-16" cx="428.04" cy="374.75" rx="1.69" ry="3.87" transform="translate(-14.44 745.99) rotate(-82.6)"/><ellipse class="cls-16" cx="452.88" cy="377.98" rx="1.69" ry="3.87" transform="translate(4 773.43) rotate(-82.6)"/><ellipse class="cls-5" cx="416.17" cy="418.38" rx="8.87" ry="7.39"/><path class="cls-27" d="M450.75,448.59s1.05,37.58-.66,51.07l6.38.1S457.5,468.85,450.75,448.59Z" transform="translate(-15.71 -4.96)"/><path class="cls-27" d="M399.29,452.49s-7.89,33.68-6.78,47.18l-4.11.1S393.85,463.82,399.29,452.49Z" transform="translate(-15.71 -4.96)"/><path class="cls-9" d="M460.17,377.33s24.53,12,9.51,50.5C469.68,427.83,456,399.18,460.17,377.33Z" transform="translate(-15.71 -4.96)"/><path class="cls-9" d="M416.87,371.7s-26.61,6.18-20.67,47C396.21,418.74,416,393.92,416.87,371.7Z" transform="translate(-15.71 -4.96)"/><path class="cls-9" d="M446.07,339.49s4.6,24.36,14.1,37.85C460.17,377.33,478.48,354.15,446.07,339.49Z" transform="translate(-15.71 -4.96)"/><path class="cls-9" d="M438.12,339.49s-9.34,23-21.32,34.3C416.8,373.78,403.45,347.43,438.12,339.49Z" transform="translate(-15.71 -4.96)"/><path class="cls-28" d="M292.71,499.76s-39.64-66.24-93.51,0Z" transform="translate(-15.71 -4.96)"/><rect class="cls-5" x="237.82" y="438.6" width="13.6" height="38.95" transform="translate(-7.47 -9.27) rotate(1.03)"/><rect class="cls-17" x="220.6" y="392.38" width="50.58" height="35.3" rx="16.77" ry="16.77" transform="translate(-8.33 -9.3) rotate(1.03)"/><rect class="cls-6" x="224.35" y="400.03" width="42.23" height="66.86" rx="20.07" ry="20.07" transform="translate(-7.91 -9.29) rotate(1.03)"/><circle class="cls-4" cx="220.32" cy="430.41" r="4.54" transform="matrix(0.02, -1, 1, 0.02, -229.67, 638.02)"/><circle class="cls-4" cx="270.9" cy="425.96" r="4.54" transform="translate(-175.56 684.22) rotate(-88.97)"/><ellipse class="cls-17" cx="245.96" cy="403.01" rx="8.64" ry="18.32" transform="translate(-177.11 636.75) rotate(-88.97)"/><rect class="cls-17" x="220.54" y="402.8" width="7.45" height="20.54" rx="3.54" ry="3.54" transform="translate(-8.28 -8.91) rotate(1.03)"/><rect class="cls-17" x="263.66" y="403.57" width="7.45" height="20.54" rx="3.54" ry="3.54" transform="translate(-8.26 -9.68) rotate(1.03)"/><polyline class="cls-15" points="230.24 422.54 225.15 434.84 231.95 434.84"/><path class="cls-15" d="M240.87,443.16s3.75,14.6,9.7.17" transform="translate(-15.71 -4.96)"/><ellipse class="cls-3" cx="236.08" cy="427.5" rx="3.23" ry="2.28" transform="translate(-211.3 650.93) rotate(-88.97)"/><ellipse class="cls-3" cx="254.25" cy="427.83" rx="3.23" ry="2.28" transform="translate(-193.78 669.41) rotate(-88.97)"/><ellipse class="cls-16" cx="234.39" cy="433.25" rx="1.69" ry="3.87" transform="translate(-218.71 654.88) rotate(-88.97)"/><ellipse class="cls-16" cx="259.43" cy="433.7" rx="1.69" ry="3.87" transform="translate(-194.56 680.36) rotate(-88.97)"/><path class="cls-28" d="M195.18,503.33H297.25S251.34,474.8,195.18,503.33Z" transform="translate(-15.71 -4.96)"/><ellipse class="cls-5" cx="228.18" cy="476.61" rx="8.87" ry="7.39"/><path class="cls-6" d="M325.81,394.73c.69-.05,3.45,4.82,4.58,6.87-.54-6.83-.84-14.39.47-14.32,1.76.09,2,7.91,1.94,12,.12-4.48.65-13.42,2.88-12.7,2.43.79.6,11.16-.12,14.82.79-3.76,3.18-14.47,4.5-13.6,1.59,1.05-1.58,16.77-1.58,16.77s4.71-10.9,7.56-9.88-12.24,24-14.61,17.64C330.26,408.8,323.3,394.92,325.81,394.73Z" transform="translate(-15.71 -4.96)"/><path class="cls-6" d="M168.8,397c-.65-.23-4.61,3.73-6.24,5.41,2.33-6.44,4.63-13.65,3.35-13.93-1.72-.38-4,7.1-5.07,11.07,1.07-4.35,2.94-13.11.61-13-2.55.11-3.55,10.59-3.82,14.32.23-3.83.78-14.79-.72-14.31-1.82.59-2.94,16.58-2.94,16.58s-1.64-11.76-4.66-11.54,5.41,26.43,9.39,20.89C160.76,409.36,171.17,397.83,168.8,397Z" transform="translate(-15.71 -4.96)"/><path class="cls-28" d="M232,473.31s-53,20-69.4-66l-8,2.3s-13.85,66.19,40.54,93.7C195.18,503.33,234.88,497.9,232,473.31Z" transform="translate(-15.71 -4.96)"/><path class="cls-28" d="M260.39,473.31s53,20,69.4-66l8,2.3s13.85,66.19-40.54,93.7C297.25,503.33,257.54,497.9,260.39,473.31Z" transform="translate(-15.71 -4.96)"/><path class="cls-17" d="M271.23,407.18s-3.85-17.69-19.47-27.45l-4.1,3V378s-31.88,10.51-27.08,38c0,0,6.82-11.94,20.29-13.36S271.23,407.18,271.23,407.18Z" transform="translate(-15.71 -4.96)"/><path class="cls-29" d="M129.76,499.66S116.71,433,90.91,417s-57.45,1.39-57.45,82.65Z" transform="translate(-15.71 -4.96)"/><rect class="cls-5" x="64.86" y="381.08" width="13.6" height="38.95" transform="translate(178.6 783.58) rotate(172.6)"/><rect class="cls-3" x="39.77" y="335.3" width="50.58" height="35.3" rx="16.77" ry="16.77" transform="translate(159.34 689.61) rotate(172.6)"/><rect class="cls-6" x="46.97" y="342.75" width="42.23" height="66.86" rx="20.07" ry="20.07" transform="matrix(-0.99, 0.13, -0.13, -0.99, 168.34, 735.49)"/><circle class="cls-4" cx="92.14" cy="365.04" r="4.54" transform="translate(-61.97 9.95) rotate(-7.4)"/><circle class="cls-4" cx="41.98" cy="371.56" r="4.54" transform="matrix(0.99, -0.13, 0.13, 0.99, -63.23, 3.54)"/><ellipse class="cls-3" cx="64.22" cy="345.98" rx="18.32" ry="8.64" transform="translate(-59.75 6.19) rotate(-7.4)"/><rect class="cls-3" x="83.17" y="343.3" width="7.45" height="20.54" rx="3.54" ry="3.54" transform="translate(202.89 688.03) rotate(172.6)"/><rect class="cls-3" x="40.39" y="348.85" width="7.45" height="20.54" rx="3.54" ry="3.54" transform="translate(118.42 704.6) rotate(172.6)"/><polyline class="cls-15" points="53 364.77 60.18 375.4 50.89 377.77"/><path class="cls-15" d="M73.73,385.31s-1.55,18.6-9.51.77" transform="translate(-15.71 -4.96)"/><ellipse class="cls-3" cx="76.75" cy="369.22" rx="2.28" ry="3.23" transform="translate(-62.64 8) rotate(-7.4)"/><ellipse class="cls-3" cx="58.73" cy="371.57" rx="2.28" ry="3.23" transform="translate(-63.09 5.7) rotate(-7.4)"/><ellipse class="cls-16" cx="79.07" cy="374.75" rx="3.87" ry="1.69" transform="translate(-63.33 8.35) rotate(-7.4)"/><ellipse class="cls-16" cx="54.23" cy="377.98" rx="3.87" ry="1.69" transform="translate(-63.95 5.17) rotate(-7.4)"/><ellipse class="cls-5" cx="59.51" cy="418.38" rx="8.87" ry="7.39"/><path class="cls-22" d="M56.79,448.59s-1.05,37.58.66,51.07l-6.38.1S50,468.85,56.79,448.59Z" transform="translate(-15.71 -4.96)"/><circle class="cls-3" cx="428.71" cy="162.51" r="17.04"/><path class="cls-3" d="M41.39,367.05l5.94,13.31,3-23.88,6,9.52,2.3-11.19L67.33,366l3-12.44,7.69,9,3.64-7.69,7.58,19.91s7.55-30.44-4.65-32.87S29.67,329.15,41.39,367.05Z" transform="translate(-15.71 -4.96)"/></g></g></g></svg>