<svg xmlns="http://www.w3.org/2000/svg" viewBox="0 0 88.22 113.98"><defs><style>.cls-1{fill:#fce1c7;}.cls-1,.cls-2,.cls-3,.cls-4{fill-rule:evenodd;}.cls-2{fill:#fae1c8;}.cls-3{fill:#fff8f0;}.cls-4{fill:#6a9dc9;}.cls-5{fill:#ed7371;}.cls-6{fill:#ffc74f;}</style></defs><title>Ресурс 3</title><g id="Слой_2" data-name="Слой 2"><g id="Objects"><polygon class="cls-1" points="36.7 18.55 71.14 18.14 82.01 43.55 75.51 60.24 37.49 36.88 36.7 18.55"/><path class="cls-2" d="M61.65,60.55h0a5.28,5.28,0,0,0,6.54-3.72l6.5-27.08A5.4,5.4,0,0,0,71,23.22h0a5.33,5.33,0,0,0-6.53,3.72L57.93,54A5.39,5.39,0,0,0,61.65,60.55Z"/><path class="cls-2" d="M71,61.93h0a5.28,5.28,0,0,0,6.54-3.72l6.5-27.08a5.4,5.4,0,0,0-3.72-6.53h0a5.33,5.33,0,0,0-6.53,3.72L67.32,55.4A5.39,5.39,0,0,0,71,61.93Z"/><path class="cls-2" d="M54.6,58.82h0a5.28,5.28,0,0,0,7-2.63l10.73-25.7a5.4,5.4,0,0,0-2.63-7h0a5.33,5.33,0,0,0-7,2.63L52,51.78A5.39,5.39,0,0,0,54.6,58.82Z"/><path class="cls-3" d="M44.7,15.86c-6.12-9.23-22.84-4.79-26.95,2S18,31.74,27.27,38s13.45.19,18.39,14.18S50.83,25.1,44.7,15.86Z"/><path class="cls-3" d="M30.76,13.35h0c-.47,2.89,1.47,6.24,4.38,6.11l35.55-1.55c2.91-.13,5.64-1.5,6.11-4.38h0a5.34,5.34,0,0,0-4.38-6.11L36.87,9C33.94,9.1,31.23,10.47,30.76,13.35Z"/><path class="cls-3" d="M85.06,38h0a5.38,5.38,0,0,0,2-7.26L76.38,10.46a5.27,5.27,0,0,0-7.25-2h0a5.34,5.34,0,0,0-2,7.26L77.81,36A5.27,5.27,0,0,0,85.06,38Z"/><path class="cls-3" d="M82.82,68.37h0a5.28,5.28,0,0,0,5.4-5.23l-.46-27.85a5.4,5.4,0,0,0-5.23-5.4h0a5.33,5.33,0,0,0-5.4,5.23L77.59,63A5.39,5.39,0,0,0,82.82,68.37Z"/><path class="cls-3" d="M73.78,29.37c-5.54-5.21-24.48-3-19.87,9.91s-24-13.94-24-13.94L45.12,11.22S74.37,6.77,73.78,29.37Z"/><polygon class="cls-3" points="44.24 11.01 31.9 35.04 16.09 29.72 25.78 4.4 44.24 11.01"/><path class="cls-4" d="M29.3,2.84l-12,32.34L0,28.75A73.57,73.57,0,0,1,21.67,0Z"/><rect class="cls-5" x="59.43" y="62.84" width="23.27" height="1.51"/><ellipse class="cls-5" cx="71.07" cy="64.36" rx="11.64" ry="5.22"/><ellipse class="cls-5" cx="71.07" cy="62.84" rx="11.64" ry="5.22"/><ellipse class="cls-6" cx="71.07" cy="62.84" rx="9.85" ry="4.42"/><path class="cls-5" d="M74.42,63.7a7.38,7.38,0,0,1-1.63.63,6.86,6.86,0,0,1-1.69.21,3.18,3.18,0,0,1-1.16-.18c-.31-.12-.46-.27-.46-.45s.13-.35.39-.46a8.53,8.53,0,0,1,1.77-.33,11.09,11.09,0,0,0,2.95-.65c.56-.26.84-.61.84-1.06s-.39-1-1.16-1.34A9.27,9.27,0,0,0,71,59.45v-.58H69.8v.57a13.4,13.4,0,0,0-1.6.17,12.67,12.67,0,0,0-1.55.36l1.18,1.19a7.29,7.29,0,0,1,1.29-.36,7.21,7.21,0,0,1,1.32-.12,3.42,3.42,0,0,1,1.08.14q.41.14.41.37t-.36.37a7,7,0,0,1-1.43.26l-.12,0a12,12,0,0,0-3,.61,2.06,2.06,0,0,0-.74.54,1.07,1.07,0,0,0-.26.7q0,.87,1.17,1.44a8.1,8.1,0,0,0,3.14.67v1h1.2v-1A13.51,13.51,0,0,0,74,65.59a10.14,10.14,0,0,0,2.14-.66Z"/><path class="cls-3" d="M43.71,27.91h0c-3.28,1-5.35,4.62-4.11,7.82L50.85,64.57a6.43,6.43,0,0,0,7.82,4.11h0a6.26,6.26,0,0,0,4.11-7.82L51.52,32A6.43,6.43,0,0,0,43.71,27.91Z"/><rect class="cls-5" x="59.43" y="107.24" width="23.27" height="1.51"/><ellipse class="cls-5" cx="71.07" cy="108.76" rx="11.64" ry="5.22"/><ellipse class="cls-5" cx="71.07" cy="107.24" rx="11.64" ry="5.22"/><ellipse class="cls-6" cx="71.07" cy="107.24" rx="9.85" ry="4.42"/><rect class="cls-5" x="59.43" y="104.18" width="23.27" height="1.51"/><ellipse class="cls-5" cx="71.07" cy="105.7" rx="11.64" ry="5.22"/><ellipse class="cls-5" cx="71.07" cy="104.18" rx="11.64" ry="5.22"/><ellipse class="cls-6" cx="71.07" cy="104.18" rx="9.85" ry="4.42"/><rect class="cls-5" x="59.43" y="101.12" width="23.27" height="1.51"/><ellipse class="cls-5" cx="71.07" cy="102.63" rx="11.64" ry="5.22"/><ellipse class="cls-5" cx="71.07" cy="101.12" rx="11.64" ry="5.22"/><ellipse class="cls-6" cx="71.07" cy="101.12" rx="9.85" ry="4.42"/><rect class="cls-5" x="59.43" y="98.06" width="23.27" height="1.51"/><ellipse class="cls-5" cx="71.07" cy="99.57" rx="11.64" ry="5.22"/><ellipse class="cls-5" cx="71.07" cy="98.06" rx="11.64" ry="5.22"/><ellipse class="cls-6" cx="71.07" cy="98.06" rx="9.85" ry="4.42"/><rect class="cls-5" x="59.43" y="95" width="23.27" height="1.51"/><ellipse class="cls-5" cx="71.07" cy="96.51" rx="11.64" ry="5.22"/><ellipse class="cls-5" cx="71.07" cy="95" rx="11.64" ry="5.22"/><ellipse class="cls-6" cx="71.07" cy="94.99" rx="9.85" ry="4.42"/><rect class="cls-5" x="59.43" y="91.93" width="23.27" height="1.51"/><ellipse class="cls-5" cx="71.07" cy="93.45" rx="11.64" ry="5.22"/><ellipse class="cls-5" cx="71.07" cy="91.93" rx="11.64" ry="5.22"/><ellipse class="cls-6" cx="71.07" cy="91.93" rx="9.85" ry="4.42"/><rect class="cls-5" x="59.43" y="88.87" width="23.27" height="1.51"/><ellipse class="cls-5" cx="71.07" cy="90.39" rx="11.64" ry="5.22"/><ellipse class="cls-5" cx="71.07" cy="88.87" rx="11.64" ry="5.22"/><ellipse class="cls-6" cx="71.07" cy="88.87" rx="9.85" ry="4.42"/><rect class="cls-5" x="59.43" y="85.81" width="23.27" height="1.51"/><ellipse class="cls-5" cx="71.07" cy="87.32" rx="11.64" ry="5.22"/><ellipse class="cls-5" cx="71.07" cy="85.81" rx="11.64" ry="5.22"/><ellipse class="cls-6" cx="71.07" cy="85.81" rx="9.85" ry="4.42"/></g></g></svg>