<svg xmlns="http://www.w3.org/2000/svg" viewBox="0 0 107 128.6"><defs><style>.cls-1{fill:#ffc74f;}.cls-1,.cls-2,.cls-3,.cls-4,.cls-5{fill-rule:evenodd;}.cls-2{fill:#fff8f0;}.cls-3{fill:#fae1c8;}.cls-4{fill:#80ba75;}.cls-5{fill:#6a9dc9;}</style></defs><title>Ресурс 1</title><g id="Слой_2" data-name="Слой 2"><g id="Objects"><path class="cls-1" d="M33.33,33.32c5.74,0,4.34,18.66,17.47,33.74C72.95,92.47,80.57,128.6,33.33,128.6s-35.53-40.09-18.15-59C28.8,54.75,27.57,33.32,33.33,33.32Z"/><path class="cls-2" d="M50.28,26l36.93-.72,3.36,28.62,0,.94q-.94,2.3-2,4.56H55.3Z"/><path class="cls-2" d="M38.88,12.07,59.59,19c3.53,1.18,13,10.79,10.66,14.08s-13.53.51-16.7-1.17L36.65,22.12c-7.67-4.43-11.92-8.31-9.4-11.8C27.69,9.71,32,9.75,38.88,12.07Z"/><path class="cls-3" d="M33.58,20.41l10.79.23L31.54,18.86A9.34,9.34,0,0,0,33.58,20.41Z"/><path class="cls-1" d="M18.55,21.31C13.1,14.45,9.73,5,18.94,6.58S23.75,0,31.67,0,35.92,8.57,43,6.28,51,11.44,43,21.49,28.62,30.44,18.55,21.31Z"/><path class="cls-2" d="M12.3,33.4,12,32.92c-5.4,3.19-4.83,11.18,1,11.85-5.82,2.62-6,10.35-1.1,12C6.73,60,7.65,67.86,13.77,67.85l28.07,0c7.88,0,19.11-4.28,24-7.64,14.46-10,11.58-28.21,5.72-32.7C67,24,64.27,20.89,60.07,20.83L13.79,20.2C5.31,19.59,5.48,32.48,12.3,33.4Z"/><path class="cls-3" d="M21.62,57.19s-5.6.11-10.56.19a7.54,7.54,0,0,1,.84-.6,5.07,5.07,0,0,1-1.16-.57c4.93.4,10.88,1,10.88,1ZM11.88,33a7.87,7.87,0,0,0-1.28,1c5.57-.11,15.14-.51,15.14-.51S16.15,33,12,32.94c.06,0,0,0-.15.09Zm-1.07,11a5.47,5.47,0,0,0,2.18.71,8.44,8.44,0,0,0-1.08.59c5.48,0,12.28-.12,12.28-.12S16,44.44,10.81,44.07Z"/><path class="cls-4" d="M92.4,20H73.19V63.83H107A73,73,0,0,0,92.4,20Z"/><path class="cls-5" d="M38.14,78a9.65,9.65,0,0,1,4.17,2.28,10.39,10.39,0,0,1,3,5.92L39,87a6.05,6.05,0,0,0-.88-2.24V78Zm0,15.35a13.33,13.33,0,0,1,6,3.53,9.84,9.84,0,0,1,2.15,6.56,10.81,10.81,0,0,1-8.14,10.85v-5.88a5.06,5.06,0,0,0,.93-.85,4.84,4.84,0,0,0,1.16-3.23,4.3,4.3,0,0,0-2.09-3.81Zm-5.67,15.58V98.59q-.84-.24-1.59-.52V90.59a6.53,6.53,0,0,0,1.59,1V83a4.78,4.78,0,0,0-1.59.89v-6a13.65,13.65,0,0,1,1.59-.26V75.16H36v2.45a14.47,14.47,0,0,1,2.09.41v6.78A4.69,4.69,0,0,0,36,83.07v9.66q1.11.3,2.09.64v7.17A8.24,8.24,0,0,0,36,99.65v9.63a5.19,5.19,0,0,0,2.09-.86v5.88a16,16,0,0,1-2.09.44v4.62H32.47v-4.5a14.56,14.56,0,0,1-1.59-.28v-6.78A6.08,6.08,0,0,0,32.47,108.94ZM30.88,98.07a12.44,12.44,0,0,1-5.52-3.67,10.54,10.54,0,0,1-2.26-6.81,9.64,9.64,0,0,1,2.56-6.81,9.9,9.9,0,0,1,5.22-2.92v6a4.78,4.78,0,0,0-.73.79,4.38,4.38,0,0,0-.86,2.62,4.14,4.14,0,0,0,.79,2.43,4.54,4.54,0,0,0,.81.87v7.48Zm0,16.52a11,11,0,0,1-5.36-2.91,13.1,13.1,0,0,1-3.41-7.53l6.45-.69a8.11,8.11,0,0,0,2.31,4.35Z"/></g></g></svg>